#tb 0: 1/25
0,          0,          0,        1,   149760, 0x3772de54
0,          1,          1,        1,   149760, 0x571d885e
0,          2,          2,        1,   149760, 0x71576f09
0,          3,          3,        1,   149760, 0xf0724ce0
0,          4,          4,        1,   149760, 0x2cc6e355
0,          5,          5,        1,   149760, 0x0ca14365
0,          6,          6,        1,   149760, 0x5aeb4b4d
0,          7,          7,        1,   149760, 0xb018561c
0,          8,          8,        1,   149760, 0x8fb07521
0,          9,          9,        1,   149760, 0x9e1ccc5b
0,         10,         10,        1,   149760, 0x0cf3de9f
0,         11,         11,        1,   149760, 0x918cf512
0,         12,         12,        1,   149760, 0x9a60e5c4
0,         13,         13,        1,   149760, 0xc3b01d10
0,         14,         14,        1,   149760, 0x929b34a6
0,         15,         15,        1,   149760, 0x1f9462ac
0,         16,         16,        1,   149760, 0xcadf511e
0,         17,         17,        1,   149760, 0x318e9af6
0,         18,         18,        1,   149760, 0x0860a371
0,         19,         19,        1,   149760, 0x13e3c4d1
0,         20,         20,        1,   149760, 0xfa27cbf6
0,         21,         21,        1,   149760, 0x407ffed5
0,         22,         22,        1,   149760, 0xa3c00c3b
0,         23,         23,        1,   149760, 0x926938c6
0,         24,         24,        1,   149760, 0xf5792acf
0,         25,         25,        1,   149760, 0x66e16a48
0,         26,         26,        1,   149760, 0xd46e7041
0,         27,         27,        1,   149760, 0x814c84ee
0,         28,         28,        1,   149760, 0x165b750a
0,         29,         29,        1,   149760, 0x24ad9df0
0,         30,         30,        1,   149760, 0x11189e4e
0,         31,         31,        1,   149760, 0xb841a5b6
0,         32,         32,        1,   149760, 0xea738605
0,         33,         33,        1,   149760, 0xbbf0ca3f
0,         34,         34,        1,   149760, 0xcfb5d03c
0,         35,         35,        1,   149760, 0x0654f0b7
0,         36,         36,        1,   149760, 0x1c2cd18d
0,         37,         37,        1,   149760, 0x9a4602ae
0,         38,         38,        1,   149760, 0xf2a2ff5a
0,         39,         39,        1,   149760, 0x9c153c77
0,         40,         40,        1,   149760, 0x5ed23e56
0,         41,         41,        1,   149760, 0x1eb58383
0,         42,         42,        1,   149760, 0x725e70f2
0,         43,         43,        1,   149760, 0x652aa56c
0,         44,         44,        1,   149760, 0x7f736ad2
0,         45,         45,        1,   149760, 0x0827700a
0,         46,         46,        1,   149760, 0x76a06370
0,         47,         47,        1,   149760, 0xa7fe6f9d
